<?xml version="1.0" encoding="iso-8859-1"?>
<!-- Generator: Adobe Illustrator 17.1.0, SVG Export Plug-In . SVG Version: 6.00 Build 0)  -->
<!DOCTYPE svg PUBLIC "-//W3C//DTD SVG 1.1//EN" "http://www.w3.org/Graphics/SVG/1.1/DTD/svg11.dtd">
<svg version="1.1" id="Capa_1" xmlns="http://www.w3.org/2000/svg" xmlns:xlink="http://www.w3.org/1999/xlink" x="0px" y="0px"
	 viewBox="0 0 287 287" style="enable-background:new 0 0 287 287;" xml:space="preserve">
<g>
	<path d="M176.894,109.446l-42.306-27.697c-1.513-0.991-3.484-1.515-5.07-1.515c-3.57,0-7.519,2.733-7.519,7.958v56.357
		c0,5.225,3.948,7.958,7.518,7.958c1.587,0,3.391-0.523,4.904-1.515l42.389-27.702c2.533-1.659,4.028-4.182,4.028-6.922
		C180.839,113.629,179.428,111.106,176.894,109.446z"/>
	<path d="M287,53c0-16.569-13.431-30-30-30H30C13.431,23,0,36.431,0,53v181c0,16.569,13.431,30,30,30h227c16.569,0,30-13.431,30-30
		V53z M227.27,228H111.847c-4.354,6-10.969,8.726-18.366,8.726c-7.396,0-14.012-2.726-18.366-8.726H61.396c-8.284,0-15-6.716-15-15
		s6.716-15,15-15h13.719c4.355-5,10.97-8.725,18.366-8.725c7.396,0,14.011,3.725,18.365,8.725H227.27c8.284,0,15,6.716,15,15
		S235.555,228,227.27,228z M30,172V53h227.918l0.002,119H30z"/>
</g>
<g>
</g>
<g>
</g>
<g>
</g>
<g>
</g>
<g>
</g>
<g>
</g>
<g>
</g>
<g>
</g>
<g>
</g>
<g>
</g>
<g>
</g>
<g>
</g>
<g>
</g>
<g>
</g>
<g>
</g>
</svg>
